<?xml version="1.0" encoding="UTF-8"?>
<svg xmlns="http://www.w3.org/2000/svg" 
     fill="none" 
     viewBox="0 0 24 24" 
     stroke="currentColor"
     stroke-width="1.5"
     aria-hidden="true" 
     role="img"
     aria-label="GDPR Icon">
    <style>
        .gdpr-shield { 
            animation: protect 3s ease-in-out infinite;
            transform-origin: 12px 12px;
        }
        .gdpr-lock { 
            animation: secure 4s ease-in-out infinite;
            transform-origin: 12px 8px;
        }
        .gdpr-data { 
            animation: flow 2s ease-in-out infinite;
        }
        
        @keyframes protect {
            0%, 100% { transform: scale(1); }
            50% { transform: scale(1.03); }
        }
        
        @keyframes secure {
            0%, 100% { transform: translateY(0px); }
            50% { transform: translateY(-1px); }
        }
        
        @keyframes flow {
            0%, 100% { opacity: 0.6; }
            50% { opacity: 1; }
        }
        
        svg:hover .gdpr-shield { 
            animation-duration: 1.5s; 
        }
        svg:hover .gdpr-lock { 
            animation-duration: 2s; 
        }
        svg:hover .gdpr-data { 
            animation-duration: 1s; 
        }
        
        @media (prefers-color-scheme: dark) {
            .gdpr-data { opacity: 0.8; }
            .gdpr-lock { opacity: 0.9; }
        }
        
        @media (prefers-reduced-motion: reduce) {
            .gdpr-shield, .gdpr-lock, .gdpr-data { animation: none; }
        }
    </style>
    
    <!-- Shield protection -->
    <g class="gdpr-shield">
        <path stroke-linecap="round" stroke-linejoin="round" d="M9 12l2 2 4-4m5.618-4.016A11.955 11.955 0 0112 2.944a11.955 11.955 0 01-8.618 3.04A12.02 12.02 0 003 9c0 5.591 3.824 10.29 9 11.622 5.176-1.332 9-6.03 9-11.622 0-1.042-.133-2.052-.382-3.016z" />
    </g>
    
    <!-- Lock security -->
    <g class="gdpr-lock">
        <rect x="9" y="11" width="6" height="5" rx="1" opacity="0.7" />
        <path stroke-linecap="round" stroke-linejoin="round" d="M10 11V7a2 2 0 114 0v4" opacity="0.8" />
        <circle cx="12" cy="13.5" r="0.5" fill="currentColor" />
    </g>
    
    <!-- Data flow indicators -->
    <g class="gdpr-data">
        <circle cx="6" cy="6" r="1" fill="currentColor" opacity="0.6" />
        <circle cx="18" cy="6" r="1" fill="currentColor" opacity="0.4" />
        <circle cx="6" cy="18" r="1" fill="currentColor" opacity="0.5" />
        <circle cx="18" cy="18" r="1" fill="currentColor" opacity="0.7" />
    </g>
    
    <!-- Privacy indicators -->
    <path stroke-linecap="round" stroke-linejoin="round" d="M3 8l7.89 1.26a2 2 0 001.78-1.26L21 8" opacity="0.4" stroke-width="1" />
    <path stroke-linecap="round" stroke-linejoin="round" d="M3 16l7.89-1.26a2 2 0 001.78 1.26L21 16" opacity="0.4" stroke-width="1" />
    
    <!-- Compliance checkmark -->
    <path stroke-linecap="round" stroke-linejoin="round" d="M9 12l2 2 4-4" opacity="0.8" stroke-width="2" />
</svg>
